<svg xmlns="http://www.w3.org/2000/svg" width="85" height="15"><rect id="backgroundrect" width="100%" height="100%" x="0" y="0" fill="none" stroke="none" style="" class="selected"/><g class="currentLayer" style=""><title>Layer 1</title><path d="M12.71500015258789,3.8772323467771486 a3.0999999046325684,3.0999999046325684 0 0 1 -2.0799999237060547,3.0369999408721924 A4.261000156402588,4.261000156402588 0 0 1 12.62700080871582,8.286232743505664 A3.490999937057495,3.490999937057495 0 0 1 13.277000427246094,10.436232362035938 Q13.277000427246094,14.736232552770801 6.835999965667725,14.736232552770801 H0 V12.236232552770801 H1.815999984741211 v-9.717000007629395 H0 v-2.5 H6.835999965667725 a8.156000137329102,8.156000137329102 0 0 1 4.428999900817871,0.9570002555847168 A3.239000082015991,3.239000082015991 0 0 1 12.71500015258789,3.8772323467771486 zm-3.818000078201294,0.20000000298023224 A1.2639999389648438,1.2639999389648438 0 0 0 8.277000427246094,2.866232667211719 a3.6100001335144043,3.6100001335144043 0 0 0 -1.7430000305175781,-0.34700000286102295 h-0.9000001549720764 V5.8362329342405275 H6.815999984741211 A2.5339999198913574,2.5339999198913574 0 0 0 8.37700080871582,5.436232362035938 A1.627000093460083,1.627000093460083 0 0 0 8.896000862121582,4.072232995275684 zm0.4590000808238983,6.260000228881836 a1.810999870300293,1.810999870300293 0 0 0 -0.6200000047683716,-1.5429999828338623 a3.6449999809265137,3.6449999809265137 0 0 0 -2.134000062942505,-0.4690000116825104 H5.633999824523926 V12.236232552770801 h1.5 a2.5999999046325684,2.5999999046325684 0 0 0 1.6159999370574951,-0.4590000808238983 A1.7000000476837158,1.7000000476837158 0 0 0 9.355000495910645,10.336231980566211 zm13.015999794006348,-7.811999797821045 V12.236232552770801 h4.3460001945495605 V7.695232663397022 H29.597000122070312 V14.736232552770801 H16.433000564575195 V12.236232552770801 h2.0999999046325684 v-9.717000007629395 h-2.0999999046325684 v-2.5 h8.100000381469727 v2.5 zm19.783000946044922,0 L45.22999954223633,12.236232552770801 h1.7580000162124634 V14.736232552770801 H39.75199890136719 V12.236232552770801 h1.8849999904632568 l-0.699999988079071,-2.5 H37.1150016784668 l-0.7809998393058777,2.5 H38.297000885009766 V14.736232552770801 h-6.5 V12.236232552770801 h1.815999984741211 l2.8610000610351562,-9.717000007629395 H34.50699996948242 v-2.5 h9.628999710083008 v2.5 zm-3.065999984741211,0.6000000238418579 L37.76900100708008,7.558232579473682 h2.559000015258789 zm22.05900001525879,-0.6000000238418579 H59.25199890136719 v-2.5 h6.572000026702881 v2.5 H63.777000427246094 V14.836232934240527 H60.51100158691406 L54.14400100708008,3.916232857946582 V12.236232552770801 h1.8459999561309814 V14.736232552770801 H49.54500198364258 V12.236232552770801 H51.527000427246094 v-9.717000007629395 H49.54500198364258 v-2.5 h6.182000160217285 l5.420000076293945,9.199999809265137 zm13.338000297546387,0 V12.236232552770801 h1.7189998626708984 V14.736232552770801 h-7.519999980926514 V12.236232552770801 h1.9630000591278076 v-9.717000007629395 H68.68299865722656 v-2.5 h7.665999889373779 v2.5 zm8.564000129699707,0 l-4.159999847412109,4.0329999923706055 L83.72200012207031,12.236232552770801 h1.5230000019073486 V14.736232552770801 h-7.900000095367432 V12.236232552770801 h1.7189998626708984 L74.61100006103516,7.0112326481382325 l4.795000076293945,-4.492000102996826 H77.64800262451172 v-2.5 h7.199999809265137 v2.5 z" id="svg_1" class="" transform="" fill="#ffffff" fill-opacity="1"/></g></svg>