<svg xmlns="http://www.w3.org/2000/svg" width="85.246" height="14.814" viewBox="0 0 85.246 14.814"><path d="M13.438-10.859a3.1,3.1,0,0,1-2.08,3.037A4.261,4.261,0,0,1,13.35-6.45,3.491,3.491,0,0,1,14-4.3Q14,0,7.559,0H.723V-2.5H2.539v-9.717H.723v-2.5H7.559a8.156,8.156,0,0,1,4.429.957A3.239,3.239,0,0,1,13.438-10.859Zm-3.818.2A1.264,1.264,0,0,0,9-11.87a3.61,3.61,0,0,0-1.743-.347h-.9V-8.9H7.539A2.534,2.534,0,0,0,9.1-9.3,1.627,1.627,0,0,0,9.619-10.664Zm.459,6.26a1.811,1.811,0,0,0-.62-1.543,3.645,3.645,0,0,0-2.134-.469H6.357V-2.5h1.5a2.6,2.6,0,0,0,1.616-.459A1.7,1.7,0,0,0,10.078-4.4Zm13.016-7.812V-2.5h4.346V-7.041H30.32V0H17.156V-2.5h2.1v-9.717h-2.1v-2.5h8.1v2.5Zm19.783,0L45.953-2.5h1.758V0H40.475V-2.5h1.885l-.7-2.5H37.838l-.781,2.5H39.02V0h-6.5V-2.5h1.816l2.861-9.717H35.23v-2.5h9.629v2.5Zm-3.066.6L38.492-7.178h2.559Zm22.059-.6H59.975v-2.5h6.572v2.5H64.5V.1H61.234L54.867-10.82V-2.5h1.846V0H50.268V-2.5H52.25v-9.717H50.268v-2.5h6.182l5.42,9.2Zm13.338,0V-2.5h1.719V0h-7.52V-2.5h1.963v-9.717H69.406v-2.5h7.666v2.5Zm8.564,0-4.16,4.033L84.445-2.5h1.523V0h-7.9V-2.5h1.719L75.334-7.725l4.795-4.492H78.371v-2.5h7.2v2.5Z" transform="translate(-0.723 14.717)"/></svg>